<svg width="22" height="24" viewBox="0 0 22 24" fill="none" xmlns="http://www.w3.org/2000/svg">
<path d="M19.25 12C19.25 12.1915 19.1776 12.3751 19.0486 12.5105C18.9197 12.6458 18.7448 12.7219 18.5625 12.7219H11.6875V19.9406C11.6875 20.1321 11.6151 20.3157 11.4861 20.4511C11.3572 20.5865 11.1823 20.6625 11 20.6625C10.8177 20.6625 10.6428 20.5865 10.5139 20.4511C10.3849 20.3157 10.3125 20.1321 10.3125 19.9406V12.7219H3.4375C3.25516 12.7219 3.0803 12.6458 2.95136 12.5105C2.82243 12.3751 2.75 12.1915 2.75 12C2.75 11.8086 2.82243 11.625 2.95136 11.4896C3.0803 11.3542 3.25516 11.2781 3.4375 11.2781H10.3125V4.0594C10.3125 3.86795 10.3849 3.68433 10.5139 3.54896C10.6428 3.41358 10.8177 3.33752 11 3.33752C11.1823 3.33752 11.3572 3.41358 11.4861 3.54896C11.6151 3.68433 11.6875 3.86795 11.6875 4.0594V11.2781H18.5625C18.7448 11.2781 18.9197 11.3542 19.0486 11.4896C19.1776 11.625 19.25 11.8086 19.25 12Z" fill="white"/>
</svg>
